<?xml version="1.0" encoding="UTF-8"?>
<svg version="1.1" xmlns="http://www.w3.org/2000/svg" width="402" height="403">
<path d="M0 0 C132.66 0 265.32 0 402 0 C402 132.99 402 265.98 402 403 C269.34 403 136.68 403 0 403 C0 270.01 0 137.02 0 0 Z " fill="#FDFDFD" transform="translate(0,0)"/>
<path d="M0 0 C21.593564 -0.09375403 43.18709407 -0.16413066 64.78082085 -0.20724869 C74.80886546 -0.22780798 84.83678305 -0.25580059 94.86474609 -0.30175781 C103.61278854 -0.34182991 112.36073893 -0.36748091 121.10887063 -0.37635398 C125.73401113 -0.3815345 130.35888843 -0.39356949 134.98394394 -0.42292023 C139.35226539 -0.45041268 143.72021947 -0.45837803 148.08861923 -0.45243073 C149.67751067 -0.45351606 151.26641659 -0.46126602 152.85523224 -0.4768219 C181.63027376 -0.74433105 208.38038706 9.80012473 229 30 C247.55916558 49.46449073 256.55351938 75.30756367 256.21875 101.96484375 C255.3849318 129.30886947 242.1678381 154.02424849 222.75 172.6796875 C216.56368104 178.35589507 206.61511219 187 198 187 C198 187.66 198 188.32 198 189 C195.69 189.33 193.38 189.66 191 190 C191 190.66 191 191.32 191 192 C188.95990245 192.65077296 186.91784331 193.29539824 184.875 193.9375 C183.73804688 194.29714844 182.60109375 194.65679687 181.4296875 195.02734375 C175.96259789 196.57780538 170.74215349 197.14072976 165.0703125 197.31640625 C163.13671875 197.37924805 163.13671875 197.37924805 161.1640625 197.44335938 C159.81771091 197.48316028 158.47135671 197.52287273 157.125 197.5625 C155.75519667 197.60575183 154.38540479 197.64936812 153.015625 197.69335938 C149.67717843 197.79915522 146.338661 197.90124372 143 198 C143.54664307 198.72541992 144.09328613 199.45083984 144.65649414 200.19824219 C151.22540723 208.9220325 157.69835831 217.71572285 164.16943359 226.51220703 C167.11085589 230.50968545 170.05554693 234.50475377 173 238.5 C174.16668333 240.08332105 175.33334998 241.6666544 176.5 243.25 C177.0775 244.03375 177.655 244.8175 178.25 245.625 C187.875 258.6875 187.875 258.6875 197.5 271.75 C198.0777417 272.53407227 198.6554834 273.31814453 199.25073242 274.12597656 C200.4149799 275.70603832 201.57920523 277.28611639 202.7434082 278.86621094 C205.6969052 282.87473491 208.65081111 286.88295644 211.60546875 290.890625 C224.37456086 308.21193485 224.37456086 308.21193485 230.51171875 316.60546875 C232.14984904 318.84507512 233.79870177 321.07609518 235.45703125 323.30078125 C236.19308594 324.29464844 236.92914063 325.28851563 237.6875 326.3125 C238.33074219 327.17488281 238.97398437 328.03726562 239.63671875 328.92578125 C241 331 241 331 241 333 C236.05 333 231.1 333 226 333 C225.30261719 331.68386719 224.60523438 330.36773437 223.88671875 329.01171875 C221.24662698 324.26326547 218.17896756 320.06432439 214.8125 315.8125 C213.65061799 314.31904935 212.4904807 312.82423981 211.33203125 311.328125 C210.76436035 310.59529297 210.19668945 309.86246094 209.61181641 309.10742188 C207.34124088 306.13868393 205.15844795 303.11334452 203 300.0625 C202.41085815 299.23081299 202.41085815 299.23081299 201.80981445 298.38232422 C200.98742464 297.22031267 200.16541339 296.05803313 199.34375 294.89550781 C192.28531603 284.93880699 185.12661638 275.07816665 177.63671875 265.44140625 C174.47701446 261.34773946 171.43105803 257.17125561 168.375 253 C163.26209399 246.02497756 158.06805233 239.11814332 152.8125 232.25 C147.86415353 225.78188389 142.9600823 219.28991165 138.17578125 212.69946289 C135.48729214 209.00329802 132.75479485 205.34433207 129.9921875 201.703125 C129.30068604 200.78990479 128.60918457 199.87668457 127.89672852 198.93579102 C126.52618556 197.12857512 125.15177814 195.32428228 123.77319336 193.52319336 C122.84325562 192.29548218 122.84325562 192.29548218 121.89453125 191.04296875 C121.33612549 190.31102295 120.77771973 189.57907715 120.20239258 188.82495117 C119 187 119 187 119 185 C119.58056656 184.99191315 120.16113312 184.98382629 120.7592926 184.97549438 C126.8767556 184.88852172 132.99392837 184.78899492 139.11108398 184.68261719 C141.38512241 184.64465489 143.65921422 184.6097491 145.93334961 184.578125 C160.20433176 184.37725787 173.98878765 183.89395458 188 181 C188 180.34 188 179.68 188 179 C190.31 178.67 192.62 178.34 195 178 C195 177.34 195 176.68 195 176 C195.78761719 175.63390625 196.57523438 175.2678125 197.38671875 174.890625 C206.70538454 170.25886212 213.72999646 164.39763886 221 157 C221.68964844 156.3090625 222.37929688 155.618125 223.08984375 154.90625 C233.90268671 143.33332058 240.58681448 128.55455449 243 113 C243.26490234 111.66775391 243.26490234 111.66775391 243.53515625 110.30859375 C244.1373367 106.02248587 244.18413862 101.82272888 244.1875 97.5 C244.19974609 96.67113281 244.21199219 95.84226562 244.22460938 94.98828125 C244.23600618 90.20922043 243.72079709 86.51547508 242 82 C241.69719459 80.29704306 241.42587601 78.58816384 241.1875 76.875 C237.68712691 57.10190012 224.5764532 39.98886276 208.60546875 28.39453125 C191.50214653 16.62619027 173.6773513 12.66515184 153.15893555 12.79223633 C151.59071453 12.794402 150.0224919 12.79558473 148.45426941 12.79586792 C145.09915152 12.79791046 141.74411096 12.8055564 138.38901329 12.8173008 C133.08106453 12.83455794 127.77325063 12.83118435 122.46528625 12.82365417 C107.37936983 12.80452828 92.29363293 12.79790442 77.20776367 12.84545898 C68.85919135 12.87160725 60.51100567 12.87294198 52.16243011 12.84631175 C47.75115325 12.83332721 43.34071602 12.83333862 38.92951012 12.8641758 C34.78645808 12.89308872 30.64469539 12.88968311 26.50164986 12.86156845 C24.98350597 12.85707359 23.46527177 12.86451982 21.947258 12.88489723 C10.47321441 13.02924545 10.47321441 13.02924545 6.83869362 10.49002647 C5.32219339 8.73184183 4.18711237 6.98812453 3 5 C2.18826592 4.20694568 2.18826592 4.20694568 1.36013317 3.39787006 C0 2 0 2 0 0 Z " fill="#101010" transform="translate(129,41)"/>
<path d="M0 0 C91.08 0 182.16 0 276 0 C271.88915802 8.22168397 271.88915802 8.22168397 268 11 C263.6491414 12.04012737 259.38241898 11.94327713 254.92626953 11.88647461 C253.60866135 11.89725037 252.29105316 11.90802612 250.93351746 11.91912842 C247.33231323 11.94779485 243.73241242 11.93365174 240.1312089 11.91168666 C236.36348484 11.89603039 232.59601409 11.91992922 228.82833862 11.93959045 C221.69915368 11.97080479 214.5704505 11.96656555 207.44123542 11.94951588 C197.80379697 11.92852334 188.16656084 11.96244431 178.5291748 11.99325275 C163.35255796 12.04032419 148.17696919 12.01415385 133 12 C132.67 39.06 132.34 66.12 132 94 C128.7 94 125.4 94 122 94 C122 66.61 122 39.22 122 11 C113.84023437 11.08121094 105.68046875 11.16242188 97.2734375 11.24609375 C91.44823376 11.28640688 85.62313479 11.32229051 79.79788017 11.35177708 C72.25117038 11.39056754 64.70500216 11.43981185 57.15869141 11.52807617 C50.54514461 11.60539357 43.93203002 11.64598555 37.31801224 11.6641407 C34.7941528 11.67707937 32.2703256 11.70234591 29.74671555 11.7401104 C26.21243622 11.79089775 22.68058134 11.79792455 19.14599609 11.79467773 C17.57937729 11.83242813 17.57937729 11.83242813 15.98110962 11.87094116 C9.06299949 11.80213165 9.06299949 11.80213165 6.05037308 9.52882576 C3.39704198 6.53770114 1.79875486 3.59750972 0 0 Z " fill="#DE3C45" transform="translate(16,143)"/>
<path d="M0 0 C0 0.99 0 1.98 0 3 C-44.22 3 -88.44 3 -134 3 C-134 30.06 -134 57.12 -134 85 C-138.29 85 -142.58 85 -147 85 C-147 57.61 -147 30.22 -147 2 C-184.29 2 -221.58 2 -260 2 C-260 1.67 -260 1.34 -260 1 C-222.38 1 -184.76 1 -146 1 C-146 28.39 -146 55.78 -146 84 C-142.7 84 -139.4 84 -136 84 C-136.00222061 82.97491837 -136.00444122 81.94983673 -136.00672913 80.89369202 C-136.02696041 71.2549304 -136.04197207 61.61617306 -136.05181217 51.97739506 C-136.05704103 47.02146078 -136.06413874 42.06554358 -136.07543945 37.10961914 C-136.08626822 32.33101164 -136.09227681 27.55242062 -136.09487724 22.7738018 C-136.09673151 20.94646381 -136.10035216 19.11912676 -136.10573006 17.29179573 C-136.11294036 14.74146671 -136.11399095 12.19120663 -136.11352539 9.64086914 C-136.11712067 8.87770386 -136.12071594 8.11453857 -136.12442017 7.32824707 C-136.11405216 2.11405216 -136.11405216 2.11405216 -135 1 C-133.25411375 0.89150558 -131.50384069 0.85312964 -129.75462341 0.84178162 C-128.61733795 0.8319928 -127.48005249 0.82220398 -126.30830383 0.81211853 C-124.4201722 0.80348534 -124.4201722 0.80348534 -122.49389648 0.79467773 C-121.17701843 0.78477814 -119.86014038 0.77487854 -118.50335693 0.76467896 C-114.88165045 0.73756567 -111.25993085 0.71659102 -107.63817859 0.69667697 C-103.85715497 0.67485689 -100.07617208 0.64744881 -96.29518127 0.62062073 C-89.13058664 0.57063987 -81.96596946 0.52572112 -74.80133063 0.48259836 C-66.64665946 0.43327198 -58.49202914 0.37833685 -50.33739746 0.32291877 C-33.5583026 0.20901597 -16.77917034 0.1021951 0 0 Z " fill="#EEAAAE" transform="translate(284,153)"/>
</svg>
