<?xml version="1.0" standalone="no"?>
<!DOCTYPE svg PUBLIC "-//W3C//DTD SVG 20010904//EN"
 "http://www.w3.org/TR/2001/REC-SVG-20010904/DTD/svg10.dtd">
<svg version="1.0" xmlns="http://www.w3.org/2000/svg"
 width="256.000000pt" height="256.000000pt" viewBox="0 0 256.000000 256.000000"
 preserveAspectRatio="xMidYMid meet">

<g transform="translate(0.000000,256.000000) scale(0.100000,-0.100000)"
fill="#000000" stroke="none">
<path d="M111 2083 l-80 -160 231 -167 c127 -92 232 -165 234 -163 5 5 -283
628 -296 641 -5 5 -43 -60 -89 -151z"/>
<path d="M2337 2189 c-13 -30 -81 -177 -151 -328 -70 -150 -125 -275 -123
-277 2 -3 437 307 465 331 4 3 -102 216 -141 284 l-26 45 -24 -55z"/>
<path d="M25 1858 c7 -18 56 -120 108 -227 l95 -193 469 -335 c257 -185 473
-337 479 -340 14 -5 100 215 88 226 -5 5 -247 181 -539 391 -292 211 -569 411
-616 446 -48 35 -89 64 -92 64 -3 0 0 -15 8 -32z m645 -491 c300 -214 546
-391 548 -392 5 -4 -50 -145 -57 -144 -3 0 -208 143 -455 317 l-449 317 -80
154 c-44 85 -74 151 -66 146 8 -5 259 -184 559 -398z"/>
<path d="M1930 1444 c-338 -245 -621 -452 -629 -459 -12 -12 -7 -30 29 -122
24 -59 44 -110 46 -111 1 -2 139 94 306 214 167 120 381 274 477 342 l174 125
109 225 c60 124 107 226 105 228 -1 2 -279 -197 -617 -442z m453 174 l-79
-153 -450 -317 c-247 -174 -452 -317 -455 -317 -6 -1 -61 140 -57 144 22 18
1112 795 1115 795 3 0 -31 -69 -74 -152z"/>
<path d="M284 1333 c4 -11 47 -106 95 -210 l89 -188 143 -117 144 -117 210 -1
c182 0 207 2 195 14 -15 14 -114 87 -605 439 -137 99 -256 184 -264 191 -11 9
-13 7 -7 -11z m566 -418 c129 -92 242 -174 250 -182 12 -11 -13 -13 -160 -13
l-175 1 -139 112 -140 112 -78 168 c-43 92 -78 170 -78 173 0 2 64 -42 143
-99 78 -57 248 -179 377 -272z"/>
<path d="M424 1163 c3 -11 30 -67 59 -124 51 -103 53 -105 162 -191 l110 -88
129 0 c74 0 126 4 121 9 -12 10 -554 394 -574 405 -10 6 -12 4 -7 -11z"/>
<path d="M1919 1088 c-200 -145 -402 -290 -448 -323 l-84 -60 198 -7 c230 -9
189 -23 378 126 l125 99 100 214 c55 117 99 213 98 213 -2 0 -167 -118 -367
-262z m231 16 l-80 -169 -141 -111 -141 -111 -156 4 c-87 2 -162 5 -169 6 -6
1 162 127 374 280 212 152 388 276 390 274 1 -2 -33 -80 -77 -173z"/>
<path d="M1860 984 c-151 -107 -282 -201 -290 -209 -12 -13 1 -15 112 -15
l126 0 112 88 112 87 59 117 c62 123 64 128 52 128 -5 0 -132 -88 -283 -196z"/>
<path d="M1237 676 c-48 -18 -62 -29 -81 -70 -36 -76 -8 -162 64 -198 98 -49
210 21 210 131 0 103 -97 171 -193 137z"/>
<path d="M823 503 c-67 -48 -120 -90 -117 -94 8 -13 295 -232 298 -228 8 9
100 299 96 302 -3 2 -35 26 -72 55 -37 29 -71 52 -75 52 -5 -1 -63 -40 -130
-87z"/>
<path d="M1540 539 c-36 -27 -69 -54 -74 -59 -8 -8 83 -300 95 -300 8 0 293
220 296 228 2 6 -223 169 -247 179 -3 2 -34 -20 -70 -48z"/>
<path d="M1192 234 c-51 -36 -90 -69 -87 -74 9 -15 177 -131 185 -128 17 7
179 123 180 130 0 5 -135 106 -176 130 -6 4 -52 -22 -102 -58z"/>
</g>
</svg>
